# xmcd
#
# Track frame offsets:
#	150
#	14805
#	28722
#	39932
#	50800
#	65867
#	79672
#	89170
#	103045
#	115990
#	130532
#	143685
#
# Disc length: 2117 seconds
#
# Revision: 2
# Processed by: cddbd v1.5.2PL0 Copyright (c) Steve Scherf et al.
# Submitted via: EasyCDDAExtractor 16.0.6.1
#
DISCID=aa08430c
DTITLE=許冠傑 - 79夏日之歌集
DYEAR=1979
DGENRE=Pop
TTITLE0=十個女仔
TTITLE1=那裡是吾家
TTITLE2=一生中幾許歡笑
TTITLE3=錫晒你
TTITLE4=春夢
TTITLE5=知心友
TTITLE6=加價熱潮
TTITLE7=何曰再相逢
TTITLE8=忍
TTITLE9=腐朽化神奇
TTITLE10=催眠曲
TTITLE11=說一聲再見
EXTD=YEAR: 1979
EXTT0=
EXTT1=
EXTT2=
EXTT3=
EXTT4=
EXTT5=
EXTT6=
EXTT7=
EXTT8=
EXTT9=
EXTT10=
EXTT11=
PLAYORDER=
